<svg width="146" height="72" viewBox="0 0 146 72" fill="none" xmlns="http://www.w3.org/2000/svg">
<path fill-rule="evenodd" clip-rule="evenodd" d="M0 72H73.5565L145.546 0H0V72Z" fill="url(#paint0_linear_0_1889)"/>
<path fill-rule="evenodd" clip-rule="evenodd" d="M86.3753 13.5388H72.0459V47.6047L59.5306 13.5282H47.1212L36.4377 42.0176C35.2941 34.8353 27.8824 32.3541 22.0235 30.4941C18.1624 29.2553 14.0647 27.4306 14.1177 25.4118C14.1494 23.76 16.3165 22.2353 20.6047 22.4541C23.4882 22.6059 26.0294 22.8388 31.0906 25.2776L36.0671 16.6129C31.433 14.2659 25.0588 12.78 19.8247 12.7729H19.793C13.6941 12.7729 8.61178 14.7494 5.46354 18.0071C3.28349 20.245 2.0552 23.2405 2.03649 26.3647C1.95531 30.7588 3.56825 33.8824 6.95648 36.3529C9.81531 38.4494 13.4718 39.8082 16.6977 40.8071C20.6753 42.0388 23.9224 43.1118 23.8835 45.3953C23.8611 46.2371 23.525 47.0402 22.9412 47.6471C21.9494 48.6706 20.4247 49.0588 18.3212 49.0941C14.2659 49.1788 11.2624 48.5435 6.45884 45.7094L2.03649 54.5012C6.98725 57.3112 12.5792 58.7967 18.2718 58.8141H19.0165C24.0424 58.7259 28.1012 57.2929 31.3412 54.6812C31.5283 54.5365 31.6941 54.3847 31.8671 54.2294L30.413 58.0588H43.4118L45.5965 51.4165C48.0639 52.235 50.6487 52.644 53.2482 52.6271C55.7825 52.6395 58.3028 52.2524 60.7165 51.48L62.8341 58.0588H84.06V44.2941H88.6871C99.8788 44.2941 106.496 38.5941 106.496 29.0471C106.496 18.42 100.066 13.5388 86.3753 13.5388ZM53.2624 42.7059C51.697 42.7153 50.1428 42.4428 48.6741 41.9012L53.2165 27.5753H53.2941L57.7588 41.9435C56.3137 42.4492 54.7934 42.7069 53.2624 42.7059ZM87.2153 34.4718H84.06V22.9094H87.2153C91.4259 22.9094 94.7824 24.3212 94.7824 28.6059C94.7824 33.0529 91.4259 34.4541 87.2153 34.4541" fill="white"/>
<defs>
<linearGradient id="paint0_linear_0_1889" x1="72.7729" y1="0" x2="72.7729" y2="72" gradientUnits="userSpaceOnUse">
<stop stop-color="#00B8F1"/>
<stop offset="0.02" stop-color="#01B6F0"/>
<stop offset="0.31" stop-color="#0D90D9"/>
<stop offset="0.58" stop-color="#1775C8"/>
<stop offset="0.82" stop-color="#1C65BF"/>
<stop offset="1" stop-color="#1E5FBB"/>
</linearGradient>
</defs>
</svg>
